<mxfile host="app.diagrams.net" modified="2023-03-13T14:31:39.271Z" agent="5.0 (Windows NT 10.0; Win64; x64) AppleWebKit/537.36 (KHTML, like Gecko) Chrome/111.0.0.0 Safari/537.36" etag="sUhRdHScve7SCRVORBkG" version="21.0.6" type="github">
  <diagram name="Page-1" id="NfiXUJc8mGAJxhe5oF6O">
    <mxGraphModel dx="1435" dy="902" grid="1" gridSize="10" guides="1" tooltips="1" connect="1" arrows="1" fold="1" page="0" pageScale="1" pageWidth="827" pageHeight="1169" math="0" shadow="0">
      <root>
        <mxCell id="0" />
        <mxCell id="1" parent="0" />
        <mxCell id="bO_UOVRKK739ylqkNJcy-105" value="" style="endArrow=classic;html=1;rounded=0;" parent="1" edge="1">
          <mxGeometry width="50" height="50" relative="1" as="geometry">
            <mxPoint x="170" y="518" as="sourcePoint" />
            <mxPoint x="115" y="585" as="targetPoint" />
          </mxGeometry>
        </mxCell>
        <mxCell id="bO_UOVRKK739ylqkNJcy-1" value="Yusron" style="rounded=1;whiteSpace=wrap;html=1;strokeColor=#000000;" parent="1" vertex="1">
          <mxGeometry x="80" y="40" width="160" height="40" as="geometry" />
        </mxCell>
        <mxCell id="bO_UOVRKK739ylqkNJcy-4" value="" style="endArrow=classic;html=1;rounded=0;exitX=0.429;exitY=1.033;exitDx=0;exitDy=0;exitPerimeter=0;" parent="1" edge="1">
          <mxGeometry width="50" height="50" relative="1" as="geometry">
            <mxPoint x="249.99999999999997" y="50.99000000000001" as="sourcePoint" />
            <mxPoint x="400" y="50" as="targetPoint" />
          </mxGeometry>
        </mxCell>
        <mxCell id="bO_UOVRKK739ylqkNJcy-24" style="edgeStyle=orthogonalEdgeStyle;rounded=0;orthogonalLoop=1;jettySize=auto;html=1;exitX=1;exitY=0.5;exitDx=0;exitDy=0;entryX=0;entryY=0.5;entryDx=0;entryDy=0;" parent="1" source="bO_UOVRKK739ylqkNJcy-9" target="bO_UOVRKK739ylqkNJcy-23" edge="1">
          <mxGeometry relative="1" as="geometry" />
        </mxCell>
        <mxCell id="bO_UOVRKK739ylqkNJcy-9" value="Yusron" style="rounded=1;whiteSpace=wrap;html=1;strokeColor=#000000;" parent="1" vertex="1">
          <mxGeometry x="80" y="40" width="160" height="40" as="geometry" />
        </mxCell>
        <mxCell id="bO_UOVRKK739ylqkNJcy-32" style="edgeStyle=orthogonalEdgeStyle;rounded=0;orthogonalLoop=1;jettySize=auto;html=1;exitX=0.5;exitY=1;exitDx=0;exitDy=0;entryX=0.5;entryY=0;entryDx=0;entryDy=0;" parent="1" source="bO_UOVRKK739ylqkNJcy-13" target="bO_UOVRKK739ylqkNJcy-34" edge="1">
          <mxGeometry relative="1" as="geometry">
            <mxPoint x="820" y="230" as="targetPoint" />
          </mxGeometry>
        </mxCell>
        <mxCell id="bO_UOVRKK739ylqkNJcy-13" value="cabang" style="rounded=1;whiteSpace=wrap;html=1;strokeColor=#000000;" parent="1" vertex="1">
          <mxGeometry x="740" y="40" width="160" height="40" as="geometry" />
        </mxCell>
        <mxCell id="bO_UOVRKK739ylqkNJcy-26" style="edgeStyle=orthogonalEdgeStyle;rounded=0;orthogonalLoop=1;jettySize=auto;html=1;exitX=0.5;exitY=1;exitDx=0;exitDy=0;" parent="1" source="bO_UOVRKK739ylqkNJcy-23" edge="1">
          <mxGeometry relative="1" as="geometry">
            <mxPoint x="490" y="240" as="targetPoint" />
          </mxGeometry>
        </mxCell>
        <mxCell id="bO_UOVRKK739ylqkNJcy-23" value="perusahan" style="rounded=1;whiteSpace=wrap;html=1;" parent="1" vertex="1">
          <mxGeometry x="420" y="40" width="140" height="40" as="geometry" />
        </mxCell>
        <mxCell id="bO_UOVRKK739ylqkNJcy-25" value="memiliki" style="text;html=1;align=center;verticalAlign=middle;resizable=0;points=[];autosize=1;strokeColor=none;fillColor=none;" parent="1" vertex="1">
          <mxGeometry x="285" y="25" width="70" height="30" as="geometry" />
        </mxCell>
        <mxCell id="bO_UOVRKK739ylqkNJcy-27" value="property" style="rounded=1;whiteSpace=wrap;html=1;strokeColor=#000000;" parent="1" vertex="1">
          <mxGeometry x="410" y="240" width="160" height="40" as="geometry" />
        </mxCell>
        <mxCell id="bO_UOVRKK739ylqkNJcy-28" value="memiliki" style="text;html=1;align=center;verticalAlign=middle;resizable=0;points=[];autosize=1;strokeColor=none;fillColor=none;" parent="1" vertex="1">
          <mxGeometry x="490" y="140" width="70" height="30" as="geometry" />
        </mxCell>
        <mxCell id="bO_UOVRKK739ylqkNJcy-29" style="edgeStyle=orthogonalEdgeStyle;rounded=0;orthogonalLoop=1;jettySize=auto;html=1;exitX=1;exitY=0.5;exitDx=0;exitDy=0;entryX=0;entryY=0.5;entryDx=0;entryDy=0;" parent="1" edge="1">
          <mxGeometry relative="1" as="geometry">
            <mxPoint x="560" y="59.5" as="sourcePoint" />
            <mxPoint x="740" y="59.5" as="targetPoint" />
          </mxGeometry>
        </mxCell>
        <mxCell id="bO_UOVRKK739ylqkNJcy-30" value="memiliki" style="text;html=1;align=center;verticalAlign=middle;resizable=0;points=[];autosize=1;strokeColor=none;fillColor=none;" parent="1" vertex="1">
          <mxGeometry x="620" y="69" width="70" height="30" as="geometry" />
        </mxCell>
        <mxCell id="bO_UOVRKK739ylqkNJcy-31" value="" style="endArrow=classic;html=1;rounded=0;" parent="1" edge="1">
          <mxGeometry width="50" height="50" relative="1" as="geometry">
            <mxPoint x="604" y="73" as="sourcePoint" />
            <mxPoint x="706" y="73" as="targetPoint" />
          </mxGeometry>
        </mxCell>
        <mxCell id="bO_UOVRKK739ylqkNJcy-79" style="edgeStyle=orthogonalEdgeStyle;rounded=0;orthogonalLoop=1;jettySize=auto;html=1;exitX=0.5;exitY=1;exitDx=0;exitDy=0;" parent="1" source="bO_UOVRKK739ylqkNJcy-34" edge="1">
          <mxGeometry relative="1" as="geometry">
            <mxPoint x="820" y="400" as="targetPoint" />
          </mxGeometry>
        </mxCell>
        <mxCell id="bO_UOVRKK739ylqkNJcy-34" value="staff" style="rounded=1;whiteSpace=wrap;html=1;" parent="1" vertex="1">
          <mxGeometry x="750" y="240" width="140" height="40" as="geometry" />
        </mxCell>
        <mxCell id="bO_UOVRKK739ylqkNJcy-36" value="memiliki" style="text;html=1;align=center;verticalAlign=middle;resizable=0;points=[];autosize=1;strokeColor=none;fillColor=none;" parent="1" vertex="1">
          <mxGeometry x="820" y="140" width="70" height="30" as="geometry" />
        </mxCell>
        <mxCell id="bO_UOVRKK739ylqkNJcy-38" value="manager" style="rounded=1;whiteSpace=wrap;html=1;" parent="1" vertex="1">
          <mxGeometry x="1080" y="40" width="140" height="40" as="geometry" />
        </mxCell>
        <mxCell id="bO_UOVRKK739ylqkNJcy-39" style="edgeStyle=orthogonalEdgeStyle;rounded=0;orthogonalLoop=1;jettySize=auto;html=1;exitX=1;exitY=0.5;exitDx=0;exitDy=0;entryX=0;entryY=0.5;entryDx=0;entryDy=0;" parent="1" edge="1">
          <mxGeometry relative="1" as="geometry">
            <mxPoint x="900" y="59.5" as="sourcePoint" />
            <mxPoint x="1080" y="59.5" as="targetPoint" />
          </mxGeometry>
        </mxCell>
        <mxCell id="bO_UOVRKK739ylqkNJcy-40" value="" style="endArrow=classic;html=1;rounded=0;exitX=0.429;exitY=1.033;exitDx=0;exitDy=0;exitPerimeter=0;" parent="1" edge="1">
          <mxGeometry width="50" height="50" relative="1" as="geometry">
            <mxPoint x="500" y="87.75000000000001" as="sourcePoint" />
            <mxPoint x="500" y="222.26" as="targetPoint" />
          </mxGeometry>
        </mxCell>
        <mxCell id="bO_UOVRKK739ylqkNJcy-41" value="" style="endArrow=classic;html=1;rounded=0;exitX=0.429;exitY=1.033;exitDx=0;exitDy=0;exitPerimeter=0;" parent="1" edge="1">
          <mxGeometry width="50" height="50" relative="1" as="geometry">
            <mxPoint x="830" y="87.74000000000001" as="sourcePoint" />
            <mxPoint x="830" y="222.25" as="targetPoint" />
          </mxGeometry>
        </mxCell>
        <mxCell id="bO_UOVRKK739ylqkNJcy-42" value="" style="endArrow=classic;html=1;rounded=0;exitX=0.429;exitY=1.033;exitDx=0;exitDy=0;exitPerimeter=0;" parent="1" edge="1">
          <mxGeometry width="50" height="50" relative="1" as="geometry">
            <mxPoint x="910" y="50.99000000000001" as="sourcePoint" />
            <mxPoint x="1060" y="50" as="targetPoint" />
          </mxGeometry>
        </mxCell>
        <mxCell id="bO_UOVRKK739ylqkNJcy-43" value="memiliki" style="text;html=1;align=center;verticalAlign=middle;resizable=0;points=[];autosize=1;strokeColor=none;fillColor=none;" parent="1" vertex="1">
          <mxGeometry x="950" y="25" width="70" height="30" as="geometry" />
        </mxCell>
        <mxCell id="bO_UOVRKK739ylqkNJcy-46" value="" style="endArrow=classic;html=1;rounded=0;" parent="1" edge="1">
          <mxGeometry width="50" height="50" relative="1" as="geometry">
            <mxPoint x="1150" y="260" as="sourcePoint" />
            <mxPoint x="890" y="259.5" as="targetPoint" />
          </mxGeometry>
        </mxCell>
        <mxCell id="bO_UOVRKK739ylqkNJcy-49" value="" style="endArrow=none;html=1;rounded=0;" parent="1" edge="1">
          <mxGeometry width="50" height="50" relative="1" as="geometry">
            <mxPoint x="1150" y="260" as="sourcePoint" />
            <mxPoint x="1149.5" y="80" as="targetPoint" />
          </mxGeometry>
        </mxCell>
        <mxCell id="bO_UOVRKK739ylqkNJcy-52" value="mengepalai" style="text;html=1;align=center;verticalAlign=middle;resizable=0;points=[];autosize=1;strokeColor=none;fillColor=none;" parent="1" vertex="1">
          <mxGeometry x="970" y="227" width="90" height="30" as="geometry" />
        </mxCell>
        <mxCell id="bO_UOVRKK739ylqkNJcy-57" value="" style="endArrow=classic;html=1;rounded=0;" parent="1" edge="1">
          <mxGeometry width="50" height="50" relative="1" as="geometry">
            <mxPoint x="750" y="260" as="sourcePoint" />
            <mxPoint x="570" y="259.76" as="targetPoint" />
          </mxGeometry>
        </mxCell>
        <mxCell id="bO_UOVRKK739ylqkNJcy-58" value="" style="endArrow=classic;html=1;rounded=0;exitX=1.065;exitY=0.798;exitDx=0;exitDy=0;exitPerimeter=0;" parent="1" edge="1">
          <mxGeometry width="50" height="50" relative="1" as="geometry">
            <mxPoint x="721.1999999999998" y="250.94000000000005" as="sourcePoint" />
            <mxPoint x="605" y="251" as="targetPoint" />
          </mxGeometry>
        </mxCell>
        <mxCell id="bO_UOVRKK739ylqkNJcy-59" value="mengelola" style="text;html=1;align=center;verticalAlign=middle;resizable=0;points=[];autosize=1;strokeColor=none;fillColor=none;" parent="1" vertex="1">
          <mxGeometry x="621" y="227" width="80" height="30" as="geometry" />
        </mxCell>
        <mxCell id="bO_UOVRKK739ylqkNJcy-61" value="" style="endArrow=classic;html=1;rounded=0;" parent="1" edge="1">
          <mxGeometry width="50" height="50" relative="1" as="geometry">
            <mxPoint x="1090" y="250" as="sourcePoint" />
            <mxPoint x="940" y="250" as="targetPoint" />
          </mxGeometry>
        </mxCell>
        <mxCell id="bO_UOVRKK739ylqkNJcy-81" style="edgeStyle=orthogonalEdgeStyle;rounded=0;orthogonalLoop=1;jettySize=auto;html=1;exitX=1;exitY=0.5;exitDx=0;exitDy=0;entryX=0.5;entryY=1;entryDx=0;entryDy=0;" parent="1" source="bO_UOVRKK739ylqkNJcy-63" target="bO_UOVRKK739ylqkNJcy-80" edge="1">
          <mxGeometry relative="1" as="geometry">
            <mxPoint x="820" y="450" as="targetPoint" />
          </mxGeometry>
        </mxCell>
        <mxCell id="bO_UOVRKK739ylqkNJcy-99" style="edgeStyle=orthogonalEdgeStyle;rounded=0;orthogonalLoop=1;jettySize=auto;html=1;exitX=0.5;exitY=0;exitDx=0;exitDy=0;entryX=0.5;entryY=1;entryDx=0;entryDy=0;" parent="1" source="bO_UOVRKK739ylqkNJcy-63" target="bO_UOVRKK739ylqkNJcy-27" edge="1">
          <mxGeometry relative="1" as="geometry" />
        </mxCell>
        <mxCell id="bO_UOVRKK739ylqkNJcy-63" value="costumer" style="rounded=1;whiteSpace=wrap;html=1;strokeColor=#000000;" parent="1" vertex="1">
          <mxGeometry x="410" y="480" width="160" height="40" as="geometry" />
        </mxCell>
        <mxCell id="bO_UOVRKK739ylqkNJcy-65" value="menyewa/membeli" style="text;html=1;align=center;verticalAlign=middle;resizable=0;points=[];autosize=1;strokeColor=none;fillColor=none;" parent="1" vertex="1">
          <mxGeometry x="495" y="367" width="120" height="30" as="geometry" />
        </mxCell>
        <mxCell id="bO_UOVRKK739ylqkNJcy-80" value="registrasi" style="rounded=1;whiteSpace=wrap;html=1;" parent="1" vertex="1">
          <mxGeometry x="750" y="400" width="140" height="40" as="geometry" />
        </mxCell>
        <mxCell id="bO_UOVRKK739ylqkNJcy-83" value="" style="endArrow=classic;html=1;rounded=0;" parent="1" edge="1">
          <mxGeometry width="50" height="50" relative="1" as="geometry">
            <mxPoint x="830" y="290" as="sourcePoint" />
            <mxPoint x="830" y="382.25" as="targetPoint" />
          </mxGeometry>
        </mxCell>
        <mxCell id="bO_UOVRKK739ylqkNJcy-84" value="mengelola" style="text;html=1;align=center;verticalAlign=middle;resizable=0;points=[];autosize=1;strokeColor=none;fillColor=none;" parent="1" vertex="1">
          <mxGeometry x="822" y="321" width="80" height="30" as="geometry" />
        </mxCell>
        <mxCell id="bO_UOVRKK739ylqkNJcy-85" value="transaksi" style="text;html=1;align=center;verticalAlign=middle;resizable=0;points=[];autosize=1;strokeColor=none;fillColor=none;" parent="1" vertex="1">
          <mxGeometry x="635" y="469" width="70" height="30" as="geometry" />
        </mxCell>
        <mxCell id="bO_UOVRKK739ylqkNJcy-86" value="" style="endArrow=classic;html=1;rounded=0;exitX=0.429;exitY=1.033;exitDx=0;exitDy=0;exitPerimeter=0;" parent="1" edge="1">
          <mxGeometry width="50" height="50" relative="1" as="geometry">
            <mxPoint x="595" y="492.49" as="sourcePoint" />
            <mxPoint x="745" y="491.5" as="targetPoint" />
          </mxGeometry>
        </mxCell>
        <mxCell id="bO_UOVRKK739ylqkNJcy-88" value="jaminan" style="rounded=1;whiteSpace=wrap;html=1;" parent="1" vertex="1">
          <mxGeometry x="1080" y="395" width="140" height="40" as="geometry" />
        </mxCell>
        <mxCell id="bO_UOVRKK739ylqkNJcy-89" style="edgeStyle=orthogonalEdgeStyle;rounded=0;orthogonalLoop=1;jettySize=auto;html=1;exitX=1;exitY=0.5;exitDx=0;exitDy=0;entryX=0;entryY=0.5;entryDx=0;entryDy=0;" parent="1" source="bO_UOVRKK739ylqkNJcy-80" edge="1">
          <mxGeometry relative="1" as="geometry">
            <mxPoint x="900" y="419.5" as="sourcePoint" />
            <mxPoint x="1080" y="419.5" as="targetPoint" />
          </mxGeometry>
        </mxCell>
        <mxCell id="bO_UOVRKK739ylqkNJcy-90" value="" style="endArrow=classic;html=1;rounded=0;exitX=0.429;exitY=1.033;exitDx=0;exitDy=0;exitPerimeter=0;" parent="1" edge="1">
          <mxGeometry width="50" height="50" relative="1" as="geometry">
            <mxPoint x="907" y="411.99" as="sourcePoint" />
            <mxPoint x="1057" y="411" as="targetPoint" />
          </mxGeometry>
        </mxCell>
        <mxCell id="bO_UOVRKK739ylqkNJcy-91" value="menyewa" style="text;html=1;align=center;verticalAlign=middle;resizable=0;points=[];autosize=1;strokeColor=none;fillColor=none;" parent="1" vertex="1">
          <mxGeometry x="948" y="387" width="70" height="30" as="geometry" />
        </mxCell>
        <mxCell id="bO_UOVRKK739ylqkNJcy-98" style="edgeStyle=orthogonalEdgeStyle;rounded=0;orthogonalLoop=1;jettySize=auto;html=1;exitX=0.5;exitY=0;exitDx=0;exitDy=0;entryX=0;entryY=0.5;entryDx=0;entryDy=0;" parent="1" source="bO_UOVRKK739ylqkNJcy-94" target="bO_UOVRKK739ylqkNJcy-27" edge="1">
          <mxGeometry relative="1" as="geometry" />
        </mxCell>
        <mxCell id="bO_UOVRKK739ylqkNJcy-94" value="media" style="rounded=1;whiteSpace=wrap;html=1;strokeColor=#000000;" parent="1" vertex="1">
          <mxGeometry x="125" y="480" width="160" height="40" as="geometry" />
        </mxCell>
        <mxCell id="bO_UOVRKK739ylqkNJcy-95" value="" style="endArrow=classic;html=1;rounded=0;" parent="1" edge="1">
          <mxGeometry width="50" height="50" relative="1" as="geometry">
            <mxPoint x="216" y="450" as="sourcePoint" />
            <mxPoint x="216" y="295" as="targetPoint" />
          </mxGeometry>
        </mxCell>
        <mxCell id="bO_UOVRKK739ylqkNJcy-96" value="mengiklankan" style="text;html=1;align=center;verticalAlign=middle;resizable=0;points=[];autosize=1;strokeColor=none;fillColor=none;" parent="1" vertex="1">
          <mxGeometry x="207" y="351" width="100" height="30" as="geometry" />
        </mxCell>
        <mxCell id="bO_UOVRKK739ylqkNJcy-100" value="" style="endArrow=classic;html=1;rounded=0;" parent="1" edge="1">
          <mxGeometry width="50" height="50" relative="1" as="geometry">
            <mxPoint x="501" y="453" as="sourcePoint" />
            <mxPoint x="501" y="303" as="targetPoint" />
          </mxGeometry>
        </mxCell>
        <mxCell id="bO_UOVRKK739ylqkNJcy-101" value="" style="endArrow=classic;html=1;rounded=0;" parent="1" edge="1">
          <mxGeometry width="50" height="50" relative="1" as="geometry">
            <mxPoint x="204.5" y="520" as="sourcePoint" />
            <mxPoint x="204.5" y="650" as="targetPoint" />
          </mxGeometry>
        </mxCell>
        <mxCell id="bO_UOVRKK739ylqkNJcy-102" value="cetak" style="ellipse;whiteSpace=wrap;html=1;" parent="1" vertex="1">
          <mxGeometry x="245" y="590" width="116" height="50" as="geometry" />
        </mxCell>
        <mxCell id="bO_UOVRKK739ylqkNJcy-103" value="" style="endArrow=classic;html=1;rounded=0;" parent="1" edge="1">
          <mxGeometry width="50" height="50" relative="1" as="geometry">
            <mxPoint x="240" y="520" as="sourcePoint" />
            <mxPoint x="290" y="580" as="targetPoint" />
          </mxGeometry>
        </mxCell>
        <mxCell id="bO_UOVRKK739ylqkNJcy-104" value="internet" style="ellipse;whiteSpace=wrap;html=1;" parent="1" vertex="1">
          <mxGeometry x="151" y="669" width="116" height="50" as="geometry" />
        </mxCell>
        <mxCell id="bO_UOVRKK739ylqkNJcy-106" value="elektronik" style="ellipse;whiteSpace=wrap;html=1;" parent="1" vertex="1">
          <mxGeometry x="51" y="590" width="116" height="50" as="geometry" />
        </mxCell>
        <mxCell id="AHB0NMjDgb_ywz9iSRLe-1" value="1...1" style="text;html=1;align=center;verticalAlign=middle;resizable=0;points=[];autosize=1;strokeColor=none;fillColor=none;" vertex="1" parent="1">
          <mxGeometry x="201" y="454" width="50" height="30" as="geometry" />
        </mxCell>
        <mxCell id="AHB0NMjDgb_ywz9iSRLe-3" value="1...1" style="text;html=1;align=center;verticalAlign=middle;resizable=0;points=[];autosize=1;strokeColor=none;fillColor=none;" vertex="1" parent="1">
          <mxGeometry x="360" y="260" width="50" height="30" as="geometry" />
        </mxCell>
        <mxCell id="AHB0NMjDgb_ywz9iSRLe-4" value="" style="endArrow=none;dashed=1;html=1;rounded=0;" edge="1" parent="1">
          <mxGeometry width="50" height="50" relative="1" as="geometry">
            <mxPoint x="90" y="374" as="sourcePoint" />
            <mxPoint x="200" y="374" as="targetPoint" />
          </mxGeometry>
        </mxCell>
        <mxCell id="AHB0NMjDgb_ywz9iSRLe-5" value="property_media" style="rounded=1;whiteSpace=wrap;html=1;strokeColor=#000000;" vertex="1" parent="1">
          <mxGeometry x="-73" y="353" width="160" height="40" as="geometry" />
        </mxCell>
        <mxCell id="AHB0NMjDgb_ywz9iSRLe-6" value="0...M" style="text;html=1;align=center;verticalAlign=middle;resizable=0;points=[];autosize=1;strokeColor=none;fillColor=none;" vertex="1" parent="1">
          <mxGeometry x="1145" y="79" width="50" height="30" as="geometry" />
        </mxCell>
        <mxCell id="AHB0NMjDgb_ywz9iSRLe-7" value="0...1" style="text;html=1;align=center;verticalAlign=middle;resizable=0;points=[];autosize=1;strokeColor=none;fillColor=none;" vertex="1" parent="1">
          <mxGeometry x="888" y="232" width="50" height="30" as="geometry" />
        </mxCell>
        <mxCell id="AHB0NMjDgb_ywz9iSRLe-8" value="1...M" style="text;html=1;align=center;verticalAlign=middle;resizable=0;points=[];autosize=1;strokeColor=none;fillColor=none;" vertex="1" parent="1">
          <mxGeometry x="568" y="260" width="50" height="30" as="geometry" />
        </mxCell>
        <mxCell id="AHB0NMjDgb_ywz9iSRLe-9" value="0...M" style="text;html=1;align=center;verticalAlign=middle;resizable=0;points=[];autosize=1;strokeColor=none;fillColor=none;" vertex="1" parent="1">
          <mxGeometry x="702" y="259" width="50" height="30" as="geometry" />
        </mxCell>
        <mxCell id="AHB0NMjDgb_ywz9iSRLe-10" value="1...1" style="text;html=1;align=center;verticalAlign=middle;resizable=0;points=[];autosize=1;strokeColor=none;fillColor=none;" vertex="1" parent="1">
          <mxGeometry x="554" y="30" width="50" height="30" as="geometry" />
        </mxCell>
        <mxCell id="AHB0NMjDgb_ywz9iSRLe-11" value="1...1" style="text;html=1;align=center;verticalAlign=middle;resizable=0;points=[];autosize=1;strokeColor=none;fillColor=none;" vertex="1" parent="1">
          <mxGeometry x="699" y="30" width="50" height="30" as="geometry" />
        </mxCell>
        <mxCell id="AHB0NMjDgb_ywz9iSRLe-12" value="" style="endArrow=none;dashed=1;html=1;rounded=0;" edge="1" parent="1">
          <mxGeometry width="50" height="50" relative="1" as="geometry">
            <mxPoint x="654" y="58" as="sourcePoint" />
            <mxPoint x="654" y="-40" as="targetPoint" />
          </mxGeometry>
        </mxCell>
        <mxCell id="AHB0NMjDgb_ywz9iSRLe-13" value="perusahan_cabang" style="rounded=1;whiteSpace=wrap;html=1;" vertex="1" parent="1">
          <mxGeometry x="585" y="-80" width="140" height="40" as="geometry" />
        </mxCell>
        <mxCell id="AHB0NMjDgb_ywz9iSRLe-14" value="1...*" style="text;html=1;align=center;verticalAlign=middle;resizable=0;points=[];autosize=1;strokeColor=none;fillColor=none;" vertex="1" parent="1">
          <mxGeometry x="613" y="-40" width="40" height="30" as="geometry" />
        </mxCell>
        <mxCell id="AHB0NMjDgb_ywz9iSRLe-15" value="1...*" style="text;html=1;align=center;verticalAlign=middle;resizable=0;points=[];autosize=1;strokeColor=none;fillColor=none;" vertex="1" parent="1">
          <mxGeometry x="654" y="-40" width="40" height="30" as="geometry" />
        </mxCell>
        <mxCell id="AHB0NMjDgb_ywz9iSRLe-16" value="1...*" style="text;html=1;align=center;verticalAlign=middle;resizable=0;points=[];autosize=1;strokeColor=none;fillColor=none;" vertex="1" parent="1">
          <mxGeometry x="87" y="344" width="40" height="30" as="geometry" />
        </mxCell>
        <mxCell id="AHB0NMjDgb_ywz9iSRLe-17" value="1...*" style="text;html=1;align=center;verticalAlign=middle;resizable=0;points=[];autosize=1;strokeColor=none;fillColor=none;" vertex="1" parent="1">
          <mxGeometry x="87" y="374" width="40" height="30" as="geometry" />
        </mxCell>
      </root>
    </mxGraphModel>
  </diagram>
</mxfile>
